<?xml version="1.0" standalone="no"?>
<!DOCTYPE svg PUBLIC "-//W3C//DTD SVG 20010904//EN"
 "http://www.w3.org/TR/2001/REC-SVG-20010904/DTD/svg10.dtd">
<svg xmlns="http://www.w3.org/2000/svg" viewBox="0 0 316 225">
  <g transform="translate(0,225) scale(0.1,-0.1)" fill="#16191A" stroke="none">
    <path d="M386 1921 l-177 -177 102 -235 c56 -129 113 -261 126 -294 14 -33 34 -77 45 -98 l19 -39 170 4 c93 1 169 2 169 0 0 -1 -47 -64 -105 -139 -58 -75 -105 -143 -105 -151 0 -12 184 -437 213 -492 10 -19 20 -25 43 -23 16 1 82 5 146 8 64 4 123 12 131 18 8 7 85 99 172 205 l159 194 19 -26 c23 -33 40 -33 65 -1 l20 25 164 -199 c114 -140 170 -201 188 -205 14 -3 84 -8 155 -11 l130 -7 113 254 c61 140 112 259 112 265 0 6 -47 72 -105 147 -58 75 -105 139 -105 142 0 3 76 4 169 3 93 -2 172 -2 174 1 2 3 61 137 131 297 69 161 134 309 143 328 l17 35 -177 175 c-97 96 -180 175 -185 175 -4 0 -200 -121 -436 -269 l-429 -268 -37 37 c-21 21 -47 41 -59 45 -24 7 -67 -20 -101 -63 -21 -25 -23 -26 -48 -11 -15 9 -204 127 -419 262 -216 135 -401 251 -411 256 -16 8 -45 -17 -196 -168z m2425 -196 c-10 -11 -73 -83 -141 -160 -68 -77 -139 -158 -158 -179 l-35 -39 -401 -88 c-220 -49 -409 -90 -419 -93 -28 -7 -12 9 101 98 82 64 187 169 436 436 l329 352 153 -153 c151 -151 153 -154 135 -174z m-2134 205 c310 -333 473 -509 497 -537 14 -17 82 -75 151 -129 68 -54 123 -100 121 -101 -2 -2 -190 38 -420 89 l-416 91 -168 190 c-92 104 -168 195 -170 201 -3 14 286 308 298 304 4 -2 52 -50 107 -108z m461 -234 l382 -240 0 -143 c0 -79 -2 -143 -5 -143 -3 0 -65 47 -138 104 -106 84 -181 156 -382 372 -137 147 -259 279 -269 292 l-19 24 24 -13 c14 -8 197 -122 407 -253z m1191 207 c-31 -32 -154 -164 -275 -293 -170 -183 -247 -258 -349 -337 -71 -57 -133 -103 -137 -103 -5 0 -8 63 -8 140 l0 139 28 21 c53 39 777 490 787 490 5 0 -16 -26 -46 -57z m438 -315 c-96 -226 -192 -445 -201 -454 -8 -8 -122 -9 -410 -3 -219 4 -400 10 -402 12 -2 2 157 38 354 81 196 43 365 80 374 82 9 3 79 75 154 160 75 84 139 154 141 154 2 0 -3 -15 -10 -32z m-2310 -131 c69 -78 133 -145 142 -149 14 -7 114 -29 578 -130 84 -18 153 -36 153 -39 0 -6 -800 -22 -807 -16 -3 4 -114 256 -184 420 -15 37 -24 65 -18 61 5 -3 67 -70 136 -147z m1136 125 c15 -15 27 -31 27 -35 0 -4 -18 -18 -39 -33 l-40 -26 -30 23 c-38 28 -39 43 -5 74 35 32 54 31 87 -3z m-143 -489 c0 -5 -51 -37 -113 -72 -61 -35 -164 -94 -227 -131 l-115 -67 -147 -7 c-117 -5 -148 -4 -148 6 1 7 45 69 98 138 l98 125 229 5 c127 3 251 7 278 8 26 1 47 -1 47 -5z m764 -31 c12 -15 58 -75 104 -134 l82 -108 -147 0 -148 0 -224 130 c-124 71 -230 135 -235 141 -8 9 61 10 268 5 l279 -7 21 -27z m-694 -139 l0 -128 -190 -230 -190 -230 -67 -8 c-38 -4 -88 -6 -112 -5 l-44 3 258 315 c295 360 337 410 342 410 1 0 3 -57 3 -127z m183 -24 c65 -79 197 -240 294 -357 96 -118 173 -215 171 -217 -2 -2 -52 -1 -110 2 l-106 6 -196 239 -196 240 0 120 c0 91 3 119 12 116 7 -3 66 -69 131 -149z m-275 114 c-8 -10 -135 -166 -283 -346 -147 -180 -272 -324 -276 -320 -13 13 -189 416 -184 421 2 2 75 7 162 10 l158 5 165 95 c91 52 185 108 210 123 52 32 69 36 48 12z m458 -112 l207 -121 158 0 c88 0 159 -2 159 -4 0 -6 -187 -426 -192 -431 -3 -4 -403 476 -553 664 -28 35 -18 30 221 -108z m-327 -198 c-15 -18 -34 -1 -25 22 5 14 9 15 21 5 12 -10 13 -16 4 -27z"/>
  </g>
</svg>

